<mxfile host="app.diagrams.net" agent="Mozilla/5.0 (Windows NT 10.0; Win64; x64) AppleWebKit/537.36 (KHTML, like Gecko) Chrome/127.0.0.0 Safari/537.36" version="24.7.6">
  <diagram name="Сторінка-1" id="deS0I_xArXT-YUgF2W9J">
    <mxGraphModel dx="880" dy="468" grid="1" gridSize="10" guides="1" tooltips="1" connect="1" arrows="1" fold="1" page="1" pageScale="1" pageWidth="827" pageHeight="1169" math="0" shadow="0">
      <root>
        <mxCell id="0" />
        <mxCell id="1" parent="0" />
        <mxCell id="z9BUpEd5xmz1Tdr9Abfj-1" value="«interface»&lt;br&gt;&lt;b&gt;Prototype&lt;/b&gt;&lt;div&gt;+ clone(): Prototype&lt;/div&gt;" style="html=1;whiteSpace=wrap;" vertex="1" parent="1">
          <mxGeometry x="400" y="40" width="120" height="80" as="geometry" />
        </mxCell>
        <mxCell id="z9BUpEd5xmz1Tdr9Abfj-13" style="edgeStyle=orthogonalEdgeStyle;rounded=0;orthogonalLoop=1;jettySize=auto;html=1;exitX=0.5;exitY=0;exitDx=0;exitDy=0;entryX=0.5;entryY=1;entryDx=0;entryDy=0;dashed=1;endArrow=block;endFill=0;" edge="1" parent="1" source="z9BUpEd5xmz1Tdr9Abfj-9" target="z9BUpEd5xmz1Tdr9Abfj-1">
          <mxGeometry relative="1" as="geometry" />
        </mxCell>
        <mxCell id="z9BUpEd5xmz1Tdr9Abfj-9" value="ConcretePrototype" style="swimlane;fontStyle=1;align=center;verticalAlign=top;childLayout=stackLayout;horizontal=1;startSize=26;horizontalStack=0;resizeParent=1;resizeParentMax=0;resizeLast=0;collapsible=1;marginBottom=0;whiteSpace=wrap;html=1;" vertex="1" parent="1">
          <mxGeometry x="380" y="170" width="160" height="86" as="geometry" />
        </mxCell>
        <mxCell id="z9BUpEd5xmz1Tdr9Abfj-10" value="- field" style="text;strokeColor=none;fillColor=none;align=left;verticalAlign=top;spacingLeft=4;spacingRight=4;overflow=hidden;rotatable=0;points=[[0,0.5],[1,0.5]];portConstraint=eastwest;whiteSpace=wrap;html=1;" vertex="1" parent="z9BUpEd5xmz1Tdr9Abfj-9">
          <mxGeometry y="26" width="160" height="26" as="geometry" />
        </mxCell>
        <mxCell id="z9BUpEd5xmz1Tdr9Abfj-11" value="" style="line;strokeWidth=1;fillColor=none;align=left;verticalAlign=middle;spacingTop=-1;spacingLeft=3;spacingRight=3;rotatable=0;labelPosition=right;points=[];portConstraint=eastwest;strokeColor=inherit;" vertex="1" parent="z9BUpEd5xmz1Tdr9Abfj-9">
          <mxGeometry y="52" width="160" height="8" as="geometry" />
        </mxCell>
        <mxCell id="z9BUpEd5xmz1Tdr9Abfj-12" value="+ clone(): Prototype" style="text;strokeColor=none;fillColor=none;align=left;verticalAlign=top;spacingLeft=4;spacingRight=4;overflow=hidden;rotatable=0;points=[[0,0.5],[1,0.5]];portConstraint=eastwest;whiteSpace=wrap;html=1;" vertex="1" parent="z9BUpEd5xmz1Tdr9Abfj-9">
          <mxGeometry y="60" width="160" height="26" as="geometry" />
        </mxCell>
        <mxCell id="z9BUpEd5xmz1Tdr9Abfj-19" style="edgeStyle=none;rounded=0;orthogonalLoop=1;jettySize=auto;html=1;exitX=0.5;exitY=0;exitDx=0;exitDy=0;endArrow=block;endFill=0;" edge="1" parent="1" source="z9BUpEd5xmz1Tdr9Abfj-14" target="z9BUpEd5xmz1Tdr9Abfj-12">
          <mxGeometry relative="1" as="geometry" />
        </mxCell>
        <mxCell id="z9BUpEd5xmz1Tdr9Abfj-14" value="prototype1" style="swimlane;fontStyle=1;align=center;verticalAlign=top;childLayout=stackLayout;horizontal=1;startSize=26;horizontalStack=0;resizeParent=1;resizeParentMax=0;resizeLast=0;collapsible=1;marginBottom=0;whiteSpace=wrap;html=1;" vertex="1" parent="1">
          <mxGeometry x="380" y="300" width="160" height="86" as="geometry" />
        </mxCell>
        <mxCell id="z9BUpEd5xmz1Tdr9Abfj-15" value="- field" style="text;strokeColor=none;fillColor=none;align=left;verticalAlign=top;spacingLeft=4;spacingRight=4;overflow=hidden;rotatable=0;points=[[0,0.5],[1,0.5]];portConstraint=eastwest;whiteSpace=wrap;html=1;" vertex="1" parent="z9BUpEd5xmz1Tdr9Abfj-14">
          <mxGeometry y="26" width="160" height="26" as="geometry" />
        </mxCell>
        <mxCell id="z9BUpEd5xmz1Tdr9Abfj-16" value="" style="line;strokeWidth=1;fillColor=none;align=left;verticalAlign=middle;spacingTop=-1;spacingLeft=3;spacingRight=3;rotatable=0;labelPosition=right;points=[];portConstraint=eastwest;strokeColor=inherit;" vertex="1" parent="z9BUpEd5xmz1Tdr9Abfj-14">
          <mxGeometry y="52" width="160" height="8" as="geometry" />
        </mxCell>
        <mxCell id="z9BUpEd5xmz1Tdr9Abfj-17" value="+ clone(): Prototype" style="text;strokeColor=none;fillColor=none;align=left;verticalAlign=top;spacingLeft=4;spacingRight=4;overflow=hidden;rotatable=0;points=[[0,0.5],[1,0.5]];portConstraint=eastwest;whiteSpace=wrap;html=1;" vertex="1" parent="z9BUpEd5xmz1Tdr9Abfj-14">
          <mxGeometry y="60" width="160" height="26" as="geometry" />
        </mxCell>
        <mxCell id="z9BUpEd5xmz1Tdr9Abfj-22" style="edgeStyle=none;rounded=0;orthogonalLoop=1;jettySize=auto;html=1;exitX=1;exitY=0.75;exitDx=0;exitDy=0;entryX=0;entryY=0.5;entryDx=0;entryDy=0;endArrow=none;endFill=0;dashed=1;" edge="1" parent="1" source="z9BUpEd5xmz1Tdr9Abfj-20" target="z9BUpEd5xmz1Tdr9Abfj-12">
          <mxGeometry relative="1" as="geometry" />
        </mxCell>
        <mxCell id="z9BUpEd5xmz1Tdr9Abfj-20" value="&lt;div style=&quot;&quot;&gt;&lt;span style=&quot;background-color: initial;&quot;&gt;this.field = Prototype.field;&lt;/span&gt;&lt;/div&gt;&lt;div style=&quot;&quot;&gt;return new ConcretePrototype(this)&lt;/div&gt;" style="html=1;whiteSpace=wrap;align=left;" vertex="1" parent="1">
          <mxGeometry x="130" y="190" width="200" height="50" as="geometry" />
        </mxCell>
        <mxCell id="z9BUpEd5xmz1Tdr9Abfj-21" style="edgeStyle=none;rounded=0;orthogonalLoop=1;jettySize=auto;html=1;exitX=1;exitY=0.25;exitDx=0;exitDy=0;entryX=-0.012;entryY=0.192;entryDx=0;entryDy=0;entryPerimeter=0;endArrow=none;endFill=0;dashed=1;" edge="1" parent="1" source="z9BUpEd5xmz1Tdr9Abfj-20" target="z9BUpEd5xmz1Tdr9Abfj-12">
          <mxGeometry relative="1" as="geometry" />
        </mxCell>
        <mxCell id="z9BUpEd5xmz1Tdr9Abfj-24" style="edgeStyle=none;rounded=0;orthogonalLoop=1;jettySize=auto;html=1;exitX=1;exitY=0.25;exitDx=0;exitDy=0;entryX=0;entryY=0.5;entryDx=0;entryDy=0;endArrow=none;endFill=0;dashed=1;" edge="1" parent="1" source="z9BUpEd5xmz1Tdr9Abfj-23" target="z9BUpEd5xmz1Tdr9Abfj-17">
          <mxGeometry relative="1" as="geometry" />
        </mxCell>
        <mxCell id="z9BUpEd5xmz1Tdr9Abfj-25" style="edgeStyle=none;rounded=0;orthogonalLoop=1;jettySize=auto;html=1;exitX=1;exitY=0.75;exitDx=0;exitDy=0;entryX=0;entryY=0.5;entryDx=0;entryDy=0;endArrow=none;endFill=0;dashed=1;" edge="1" parent="1" source="z9BUpEd5xmz1Tdr9Abfj-23" target="z9BUpEd5xmz1Tdr9Abfj-17">
          <mxGeometry relative="1" as="geometry" />
        </mxCell>
        <mxCell id="z9BUpEd5xmz1Tdr9Abfj-23" value="super(Prototype)&lt;div&gt;this.field =&amp;nbsp;&amp;nbsp;&lt;span style=&quot;background-color: initial;&quot;&gt;Prototype.field;&lt;/span&gt;&lt;/div&gt;&lt;div&gt;&lt;span style=&quot;background-color: initial;&quot;&gt;return new&amp;nbsp;&lt;/span&gt;&lt;span style=&quot;background-color: initial;&quot;&gt;ConcretePrototype(this)&lt;/span&gt;&lt;/div&gt;" style="html=1;whiteSpace=wrap;align=left;" vertex="1" parent="1">
          <mxGeometry x="120" y="336" width="200" height="50" as="geometry" />
        </mxCell>
      </root>
    </mxGraphModel>
  </diagram>
</mxfile>
